<svg width="15" height="11" viewBox="0 0 15 11" fill="none" xmlns="http://www.w3.org/2000/svg">
    <path d="M11.8016 6.7485H1.58073C1.32101 6.7485 1.1033 6.66066 0.927604 6.48496C0.75191 6.30927 0.664062 6.09156 0.664062 5.83184C0.664062 5.57212 0.75191 5.35441 0.927604 5.17871C1.1033 5.00302 1.32101 4.91517 1.58073 4.91517H11.8016L9.18906 2.30267C9.00573 2.11934 8.91788 1.90545 8.92552 1.66101C8.93316 1.41656 9.02101 1.20267 9.18906 1.01934C9.3724 0.836005 9.5901 0.740519 9.84219 0.73288C10.0943 0.725241 10.312 0.813089 10.4953 0.996422L14.6891 5.19017C14.7807 5.28184 14.8457 5.38114 14.8839 5.48809C14.922 5.59503 14.9411 5.70962 14.9411 5.83184C14.9411 5.95406 14.922 6.06864 14.8839 6.17559C14.8457 6.28253 14.7807 6.38184 14.6891 6.47351L10.4953 10.6673C10.312 10.8506 10.0943 10.9384 9.84219 10.9308C9.5901 10.9232 9.3724 10.8277 9.18906 10.6443C9.02101 10.461 8.93316 10.2471 8.92552 10.0027C8.91788 9.75823 9.00573 9.54434 9.18906 9.361L11.8016 6.7485Z"
          fill="#1C1B1F"/>
</svg>
