<svg width="12" height="7" viewBox="0 0 12 7" fill="none" xmlns="http://www.w3.org/2000/svg">
    <path d="M6.00104 6.71852C5.87882 6.71852 5.76424 6.69942 5.65729 6.66123C5.55035 6.62304 5.45104 6.55811 5.35938 6.46644L1.14271 2.24977C0.974653 2.08172 0.890625 1.86783 0.890625 1.60811C0.890625 1.34838 0.974653 1.13449 1.14271 0.966439C1.31076 0.798383 1.52465 0.714355 1.78438 0.714355C2.0441 0.714355 2.25799 0.798383 2.42604 0.966439L6.00104 4.54144L9.57604 0.966439C9.7441 0.798383 9.95799 0.714355 10.2177 0.714355C10.4774 0.714355 10.6913 0.798383 10.8594 0.966439C11.0274 1.13449 11.1115 1.34838 11.1115 1.60811C11.1115 1.86783 11.0274 2.08172 10.8594 2.24977L6.64271 6.46644C6.55104 6.55811 6.45174 6.62304 6.34479 6.66123C6.23785 6.69942 6.12326 6.71852 6.00104 6.71852Z" fill="#0F2E20"/>
</svg>
