<svg width="18" height="18" viewBox="0 0 18 18" fill="none" xmlns="http://www.w3.org/2000/svg">
  <path d="M2.58333 17.25C2.07917 17.25 1.64757 17.0705 1.28854 16.7115C0.929514 16.3524 0.75 15.9208 0.75 15.4167V2.58333C0.75 2.07917 0.929514 1.64757 1.28854 1.28854C1.64757 0.929514 2.07917 0.75 2.58333 0.75H8.08333C8.34306 0.75 8.56076 0.837847 8.73646 1.01354C8.91215 1.18924 9 1.40694 9 1.66667C9 1.92639 8.91215 2.1441 8.73646 2.31979C8.56076 2.49549 8.34306 2.58333 8.08333 2.58333H2.58333V15.4167H15.4167V9.91667C15.4167 9.65694 15.5045 9.43924 15.6802 9.26354C15.8559 9.08785 16.0736 9 16.3333 9C16.5931 9 16.8108 9.08785 16.9865 9.26354C17.1622 9.43924 17.25 9.65694 17.25 9.91667V15.4167C17.25 15.9208 17.0705 16.3524 16.7115 16.7115C16.3524 17.0705 15.9208 17.25 15.4167 17.25H2.58333ZM15.4167 3.86667L7.53333 11.75C7.36528 11.9181 7.15139 12.0021 6.89167 12.0021C6.63194 12.0021 6.41806 11.9181 6.25 11.75C6.08194 11.5819 5.99792 11.3681 5.99792 11.1083C5.99792 10.8486 6.08194 10.6347 6.25 10.4667L14.1333 2.58333H11.75C11.4903 2.58333 11.2726 2.49549 11.0969 2.31979C10.9212 2.1441 10.8333 1.92639 10.8333 1.66667C10.8333 1.40694 10.9212 1.18924 11.0969 1.01354C11.2726 0.837847 11.4903 0.75 11.75 0.75H16.3333C16.5931 0.75 16.8108 0.837847 16.9865 1.01354C17.1622 1.18924 17.25 1.40694 17.25 1.66667V6.25C17.25 6.50972 17.1622 6.72743 16.9865 6.90313C16.8108 7.07882 16.5931 7.16667 16.3333 7.16667C16.0736 7.16667 15.8559 7.07882 15.6802 6.90313C15.5045 6.72743 15.4167 6.50972 15.4167 6.25V3.86667Z" fill="#05100B"/>
</svg>
