<?xml version="1.0" standalone="no"?>
<!DOCTYPE svg PUBLIC "-//W3C//DTD SVG 20010904//EN"
 "http://www.w3.org/TR/2001/REC-SVG-20010904/DTD/svg10.dtd">
<svg version="1.0" xmlns="http://www.w3.org/2000/svg"
 width="432.000000pt" height="432.000000pt" viewBox="0 0 432.000000 432.000000"
 preserveAspectRatio="xMidYMid meet">
<metadata>
Created by potrace 1.14, written by Peter Selinger 2001-2017
</metadata>
<g transform="translate(0.000000,432.000000) scale(0.100000,-0.100000)"
fill="#000000" stroke="none">
<path d="M0 3540 l0 -210 1133 0 c1211 0 1219 0 1381 -50 297 -92 559 -316
700 -598 41 -82 84 -218 101 -322 59 -367 -60 -736 -325 -1000 -129 -130 -278
-223 -448 -280 -181 -61 -167 -60 -1409 -60 l-1133 0 0 -210 0 -210 1134 0
c1226 0 1257 1 1448 54 277 76 497 205 704 411 353 352 514 824 449 1317 -46
349 -195 648 -450 904 -261 261 -562 407 -935 453 -55 7 -484 11 -1217 11
l-1133 0 0 -210z"/>
</g>
</svg>
